<svg xmlns="http://www.w3.org/2000/svg" version="1.1" xmlns:xlink="http://www.w3.org/1999/xlink" xmlns:svgjs="http://svgjs.dev/svgjs" viewBox="0 0 1920 1080"><rect width="1920" height="1080" fill="#3c53af"></rect><g transform="matrix(7.04171909509728e-17,1.15,-1.15,7.04171909509728e-17,1519.1506118774414,-492.8732036590575)"><path d="M0,-1080C-5.6038771947459525,-983.4027084030857,-46.356658560888214,-664.0257946566257,-33.62326316847572,-500.41625041851466C-20.88986777606322,-336.8067061804036,77.22025647023163,-221.22077668593903,76.400372354475,-98.34273457133332C75.58048823871836,24.535307543272367,-43.27400370324028,90.01945978220536,-38.542567863015506,236.85200226911945C-33.81113202279073,383.6845447560336,83.56786925688412,604.9484723657683,104.78898739582365,782.6525203501511C126.01010553476318,960.3565683345339,126.65016086327714,1145.7989987267858,88.78414097062165,1303.0762901754158C50.91812107796617,1460.3535816240458,-107.60977513167227,1583.4956507378329,-122.40713196010921,1726.3162690419304C-137.20448878854614,1869.1368873460278,-20.401188660018203,2087.719378173655,0,2160L 1920 2160 L 1920 -1080 Z" fill="url(&quot;#SvgjsLinearGradient1066&quot;)"></path><path d="M320,-1080C326.63332749744,-982.7739744028736,349.72123527970814,-672.2329600240711,359.7999649846399,-496.6438464172412C369.8786946895717,-321.05473281041134,405.35405427258763,-180.68309375545013,380.47237822959056,-26.465318359021012C355.5907021865935,127.7524570374081,235.9887249725561,289.6867803105803,210.50990872665756,428.66280596133345C185.031092480759,567.6388316120866,211.89624766293358,671.9254994977186,227.59948075419925,807.3908355454978C243.30271384546492,942.8561715932769,297.47108819772524,1106.720365131597,304.72930727425154,1241.4548222480084C311.98752635077784,1376.18927936442,268.60367975906576,1462.706715285301,271.1487952133572,1615.7975782439662C273.6939106676486,1768.8884412026314,311.85813253555955,2069.2995963739945,320,2160L 1920 2160 L 1920 -1080 Z" fill="url(&quot;#SvgjsLinearGradient1067&quot;)"></path><path d="M640,-1080C634.4334386968346,-979.3262624549847,612.2504260335213,-699.083071292784,606.600632181008,-475.9575747299079C600.9508383284947,-252.83207816703182,589.7671777985612,40.798450476051556,606.1012368849198,258.75297937725657C622.4352959712784,476.70750827846155,689.1072001823508,608.5501896500097,704.6049866991593,831.7695986773222C720.1027732159679,1054.9890077046348,709.8554537689644,1376.697699987352,699.0879559857711,1598.0694335411317C688.3204582025779,1819.4411670949114,649.8479926642951,2066.344905590189,640,2160L 1920 2160 L 1920 -1080 Z" fill="url(&quot;#SvgjsLinearGradient1068&quot;)"></path><path d="M960,-1080C974.7296535974284,-990.3511630452319,1060.1283835982686,-713.7143889496948,1048.3779215845705,-542.1069782713914C1036.6274595708724,-370.49956759308805,908.271850573842,-194.3153599820212,889.4972279178108,-50.355535930179485C870.7226052617797,93.60428812166222,942.4306260192798,186.46717935610357,935.7301856483837,321.6519660396589C929.0297452774876,456.8367527232142,843.8525528127714,616.2897577262848,849.2945856924341,760.7531841711524C854.7366185720969,905.2166106160199,955.7099914487954,1012.0826622014105,968.3823829263599,1188.4325247088639C981.0547744039244,1364.7823872163171,926.725998378881,1656.92444666735,925.328934557821,1818.8523592158726C923.931870736761,1980.7802717643954,954.2214890929702,2103.142059869312,960,2160L 1920 2160 L 1920 -1080 Z" fill="url(&quot;#SvgjsLinearGradient1069&quot;)"></path><path d="M1280,-1080C1264.542056398299,-1012.3509997932464,1207.7254606412826,-824.49631797493,1187.2523383897947,-674.1059987594786C1166.7792161383068,-523.7156795440271,1139.8589528699717,-339.73641074992696,1157.1612664910722,-177.6580847072915C1174.4635801121726,-15.579758664656026,1278.33122813073,152.08696642404385,1291.0662201163968,298.3639574963342C1303.8012121020636,444.64094856862454,1232.6073101450322,557.809654736972,1233.571218405073,700.0038617264505C1234.535126665114,842.198068715929,1279.4331233184437,969.468119093681,1296.8496696766417,1151.5291994332056C1314.2662160348398,1333.5902797727301,1340.8787748337013,1624.2918770024655,1338.070496554261,1792.370343763598C1335.2622182748205,1960.4488105247303,1289.678416092377,2098.7283906272664,1280,2160L 1920 2160 L 1920 -1080 Z" fill="url(&quot;#SvgjsLinearGradient1070&quot;)"></path><path d="M1600,-1080C1584.32945883874,-985.1428874816302,1509.933527572926,-741.9418357705367,1505.97675303244,-510.8573248897811C1502.019978491954,-279.7728140090255,1539.4011371153558,91.48577479704258,1576.259352757084,306.5070652845334C1613.117568398812,521.5283557720242,1732.1049584928983,588.5189602200423,1727.1260468828082,779.2704180351636C1722.147135272718,970.0218758502849,1567.573557577011,1220.8942151811216,1546.3858830965428,1451.0158121752609C1525.1982086160747,1681.1374091694001,1591.0643138494238,2041.8359686958768,1600,2160L 1920 2160 L 1920 -1080 Z" fill="url(&quot;#SvgjsLinearGradient1071&quot;)"></path></g><defs><linearGradient x1="0.1" y1="0" x2="0" y2="1" id="SvgjsLinearGradient1066"><stop stop-color="#3c53af" offset="0"></stop><stop stop-color="#3c66af" offset="0"></stop></linearGradient><linearGradient x1="0.1" y1="0" x2="0" y2="1" id="SvgjsLinearGradient1067"><stop stop-color="#5c71c7" offset="0"></stop><stop stop-color="#5c83c7" offset="0.16666666666666666"></stop></linearGradient><linearGradient x1="0.1" y1="0" x2="0" y2="1" id="SvgjsLinearGradient1068"><stop stop-color="#8696d5" offset="0"></stop><stop stop-color="#86a3d5" offset="0.3333333333333333"></stop></linearGradient><linearGradient x1="0.1" y1="0" x2="0" y2="1" id="SvgjsLinearGradient1069"><stop stop-color="#b0bae4" offset="0"></stop><stop stop-color="#b0c3e4" offset="0.5"></stop></linearGradient><linearGradient x1="0.1" y1="0" x2="0" y2="1" id="SvgjsLinearGradient1070"><stop stop-color="#d9def2" offset="0"></stop><stop stop-color="#d9e2f2" offset="0.6666666666666666"></stop></linearGradient><linearGradient x1="0.1" y1="0" x2="0" y2="1" id="SvgjsLinearGradient1071"><stop stop-color="#ffffff" offset="0"></stop><stop stop-color="#ffffff" offset="0.8333333333333334"></stop></linearGradient></defs></svg>